<svg version="1.1" id="Layer_1" xmlns="http://www.w3.org/2000/svg" xmlns:xlink="http://www.w3.org/1999/xlink" x="0px" y="0px"
	 width="100%" viewBox="0 0 842 840" enable-background="new 0 0 842 840" xml:space="preserve">
<path fill="#FFFFFF" opacity="1.000000" stroke="none" 
	d="
M511.000000,841.000000 
	C340.666718,841.000000 170.833435,841.000000 1.000114,841.000000 
	C1.000076,561.000122 1.000076,281.000275 1.000038,1.000302 
	C281.666443,1.000201 562.332886,1.000201 842.999512,1.000101 
	C842.999634,280.999695 842.999634,560.999390 842.999817,840.999512 
	C732.500000,841.000000 622.000000,841.000000 511.000000,841.000000 
M164.935913,627.528259 
	C192.577576,616.434082 209.938110,590.811157 209.944427,561.054260 
	C209.953995,516.055969 209.917892,471.057648 209.990585,426.059479 
	C209.998093,421.417664 210.340805,416.738617 210.987457,412.141510 
	C216.435959,373.407166 256.702148,345.819885 294.956879,354.521362 
	C329.010803,362.267334 351.135742,389.845978 351.209869,424.969513 
	C351.305908,470.467560 351.191010,515.966064 351.246399,561.464233 
	C351.294250,600.783813 382.831665,632.234802 422.104156,632.251099 
	C458.104156,632.266052 488.097137,605.803101 492.017670,569.784546 
	C493.255737,558.409912 492.833832,546.833618 492.842010,535.349426 
	C492.900299,453.352570 492.817535,371.355621 492.898468,289.358826 
	C492.935059,252.308990 522.185303,221.140976 558.543579,219.086502 
	C600.287537,216.727737 634.049927,248.667160 634.052734,290.538635 
	C634.058594,379.701904 634.039795,468.865173 634.094543,558.028442 
	C634.097473,562.841248 634.417969,567.687927 635.037781,572.460815 
	C639.967896,610.427307 678.805298,638.492798 716.426453,631.370728 
	C752.155457,624.606812 775.620178,596.234802 775.621277,559.781616 
	C775.623901,468.951752 775.620911,378.121857 775.622681,287.291992 
	C775.623352,250.449600 767.691345,215.434357 749.116821,183.543686 
	C708.143250,113.196091 646.740112,75.273659 565.162231,74.138512 
	C469.684357,72.809952 374.173584,73.725922 278.677795,73.961945 
	C267.250336,73.990189 255.691177,75.061531 244.423721,76.994125 
	C142.605865,94.457924 68.487267,182.542297 68.394897,285.970245 
	C68.313629,376.966705 68.361778,467.963318 68.423058,558.959839 
	C68.426292,563.772461 68.623276,568.671570 69.509598,573.383728 
	C77.907867,618.033813 121.017349,642.760986 164.935913,627.528259 
M356.618774,704.364807 
	C345.110138,704.332397 339.842163,699.871094 338.711212,688.235413 
	C338.037140,681.300476 338.331177,674.272156 338.175079,667.286133 
	C338.029083,660.753601 334.079620,656.282471 328.451416,656.250732 
	C322.920563,656.219543 318.637329,660.797729 318.604767,667.242920 
	C318.567810,674.565063 318.595184,681.905945 319.060577,689.208984 
	C320.561371,712.760071 332.625244,724.007263 356.060364,724.007263 
	C367.336365,724.007263 378.612335,724.007263 389.919617,724.007263 
	C389.234741,732.520142 383.560059,737.995850 375.618530,738.029480 
	C361.461761,738.089478 347.304260,738.097107 333.147705,738.017029 
	C328.788910,737.992371 325.283447,739.349731 323.126709,743.258789 
	C319.323761,750.151367 324.294647,757.636719 333.001343,757.728027 
	C348.822144,757.893982 364.647766,757.918213 380.467865,757.720581 
	C391.007996,757.588928 399.165619,752.563843 403.959351,743.353638 
	C406.816040,737.865051 409.472778,731.615906 409.787598,725.581848 
	C410.801239,706.153625 410.759583,686.667236 410.964539,667.201599 
	C411.033478,660.650146 407.327515,656.850342 401.430603,656.773621 
	C395.336853,656.694336 391.364380,660.587280 391.267578,667.240601 
	C391.114929,677.731262 391.224365,688.225708 391.222931,698.718567 
	C391.222687,700.481079 391.222900,702.243591 391.222900,704.365234 
	C379.526398,704.365234 368.557190,704.365234 356.618774,704.364807 
M710.490967,724.007446 
	C713.823059,724.005249 717.157104,724.069641 720.486267,723.970398 
	C721.956543,723.926575 723.507385,723.791748 724.865051,723.281494 
	C729.346802,721.597107 731.710266,717.295532 731.006226,712.493042 
	C730.329529,707.877014 726.189514,704.480469 720.500000,704.411499 
	C709.005920,704.272156 697.507507,704.259583 686.014038,704.421082 
	C682.003723,704.477356 679.252747,702.930725 677.598022,699.449890 
	C675.022766,694.032288 674.995239,688.449829 677.464478,683.040466 
	C679.091125,679.477051 681.905518,677.544617 686.175049,677.582336 
	C701.834717,677.720642 717.497009,677.722351 733.156677,677.581970 
	C737.474915,677.543335 739.057678,679.205627 738.978577,683.496155 
	C738.788269,693.822144 738.884521,704.154114 738.929077,714.483459 
	C738.960022,721.664978 742.605042,725.797791 748.729065,725.755066 
	C754.532898,725.714539 758.372681,721.538391 758.411316,714.805542 
	C758.499268,699.478455 758.498230,684.150085 758.415100,668.822876 
	C758.378479,662.070068 754.613953,658.116577 747.994324,658.087463 
	C727.336060,657.996521 706.673950,657.862061 686.019409,658.164612 
	C672.393066,658.364197 662.940308,665.484070 658.449585,678.147339 
	C656.564087,683.464417 655.848083,689.592468 656.230774,695.241394 
	C657.266602,710.528809 668.621643,724.920898 687.005066,724.064697 
	C694.486084,723.716309 701.996826,724.007324 710.490967,724.007446 
M491.497192,724.008789 
	C494.496307,724.008362 497.495636,724.031616 500.494507,724.003662 
	C519.835754,723.823364 531.818848,712.531494 533.278259,693.117920 
	C534.550537,676.194336 523.021973,656.673462 500.970825,657.900146 
	C487.018280,658.676331 472.987335,658.026062 458.991730,658.065247 
	C456.837158,658.071289 454.643494,658.133789 452.535614,658.530212 
	C438.577484,661.155579 428.892365,673.381226 428.343231,689.880920 
	C427.835388,705.138977 437.028870,723.949524 459.508240,723.967224 
	C469.838226,723.975342 480.168182,723.994568 491.497192,724.008789 
M196.917465,689.591431 
	C196.971039,711.662170 209.222153,723.973267 231.199814,724.004272 
	C244.199539,724.022583 257.200531,724.104980 270.198792,723.962646 
	C285.846832,723.791321 296.157043,715.660645 300.568085,700.725220 
	C306.058655,682.134705 294.412323,656.001587 268.639374,657.878296 
	C255.542343,658.832031 242.289337,658.603821 229.158813,657.916809 
	C208.502899,656.835938 197.321716,673.653320 196.917465,689.591431 
M118.908890,683.284790 
	C118.980759,693.779358 119.104202,704.273987 119.100624,714.768555 
	C119.099060,719.345947 120.600586,722.975891 124.969330,724.864807 
	C131.967514,727.890564 138.752640,723.227051 138.907928,715.122314 
	C139.086655,705.794434 138.983337,696.460388 138.941193,687.129272 
	C138.917175,681.812866 141.070755,677.638855 145.773514,675.261597 
	C152.870071,671.674377 160.718872,677.768494 160.880630,687.012756 
	C161.049698,696.674377 160.847351,706.341980 160.950699,716.005432 
	C161.011673,721.706482 164.769455,725.528503 170.186966,725.756348 
	C176.197540,726.009155 180.398270,721.906433 180.558685,714.874268 
	C180.786636,704.882629 180.899826,694.865967 180.417343,684.891174 
	C180.215332,680.714539 179.074661,676.243225 177.136124,672.548401 
	C167.777725,654.711548 147.442123,651.065308 129.396835,663.656250 
	C129.239014,663.602844 129.062668,663.578308 128.926498,663.491028 
	C128.227280,663.043335 127.533585,662.586609 126.846550,662.120361 
	C116.502884,655.098999 105.631775,653.539490 94.374229,659.586731 
	C83.120697,665.631775 77.411110,675.050232 77.774284,688.072998 
	C78.020386,696.897583 77.786613,705.734680 77.832664,714.565857 
	C77.869621,721.654785 81.599976,725.849670 87.660202,725.760742 
	C93.668915,725.672607 97.103210,721.776794 97.160339,714.737854 
	C97.233360,705.740356 97.109390,696.741150 97.202553,687.744080 
	C97.274284,680.815857 100.890854,675.736938 106.386223,674.479919 
	C111.188477,673.381470 115.375916,676.095825 118.908890,683.284790 
M549.989624,707.477539 
	C549.998962,710.474792 549.945496,713.473938 550.032349,716.468933 
	C550.165039,721.042419 552.668030,723.853271 556.903992,725.198975 
	C563.747131,727.372986 569.550720,722.832031 569.740356,714.909790 
	C569.939514,706.588562 569.633240,698.253723 569.900513,689.936157 
	C570.176392,681.350342 574.215088,677.644287 582.626282,677.642151 
	C598.445740,677.638123 614.265198,677.641235 630.084656,677.640564 
	C631.250305,677.640503 632.420349,677.699280 633.580811,677.619812 
	C639.609314,677.207275 643.451965,673.396851 643.480286,667.849609 
	C643.508423,662.340088 639.162903,658.097351 633.091736,658.070679 
	C615.773987,657.994507 598.455566,658.037598 581.137451,658.045166 
	C566.287170,658.051636 555.350342,665.691162 552.023743,680.257751 
	C550.092529,688.713928 550.586792,697.724121 549.989624,707.477539 
z"/>
<path fill="#2962F6" opacity="1.000000" stroke="none" 
	d="
M164.576111,627.685547 
	C121.017349,642.760986 77.907867,618.033813 69.509598,573.383728 
	C68.623276,568.671570 68.426292,563.772461 68.423058,558.959839 
	C68.361778,467.963318 68.313629,376.966705 68.394897,285.970245 
	C68.487267,182.542297 142.605865,94.457924 244.423721,76.994125 
	C255.691177,75.061531 267.250336,73.990189 278.677795,73.961945 
	C374.173584,73.725922 469.684357,72.809952 565.162231,74.138512 
	C646.740112,75.273659 708.143250,113.196091 749.116821,183.543686 
	C767.691345,215.434357 775.623352,250.449600 775.622681,287.291992 
	C775.620911,378.121857 775.623901,468.951752 775.621277,559.781616 
	C775.620178,596.234802 752.155457,624.606812 716.426453,631.370728 
	C678.805298,638.492798 639.967896,610.427307 635.037781,572.460815 
	C634.417969,567.687927 634.097473,562.841248 634.094543,558.028442 
	C634.039795,468.865173 634.058594,379.701904 634.052734,290.538635 
	C634.049927,248.667160 600.287537,216.727737 558.543579,219.086502 
	C522.185303,221.140976 492.935059,252.308990 492.898468,289.358826 
	C492.817535,371.355621 492.900299,453.352570 492.842010,535.349426 
	C492.833832,546.833618 493.255737,558.409912 492.017670,569.784546 
	C488.097137,605.803101 458.104156,632.266052 422.104156,632.251099 
	C382.831665,632.234802 351.294250,600.783813 351.246399,561.464233 
	C351.191010,515.966064 351.305908,470.467560 351.209869,424.969513 
	C351.135742,389.845978 329.010803,362.267334 294.956879,354.521362 
	C256.702148,345.819885 216.435959,373.407166 210.987457,412.141510 
	C210.340805,416.738617 209.998093,421.417664 209.990585,426.059479 
	C209.917892,471.057648 209.953995,516.055969 209.944427,561.054260 
	C209.938110,590.811157 192.577576,616.434082 164.576111,627.685547 
z"/>
<path fill="#2C65F6" opacity="1.000000" stroke="none" 
	d="
M357.103363,704.364990 
	C368.557190,704.365234 379.526398,704.365234 391.222900,704.365234 
	C391.222900,702.243591 391.222687,700.481079 391.222931,698.718567 
	C391.224365,688.225708 391.114929,677.731262 391.267578,667.240601 
	C391.364380,660.587280 395.336853,656.694336 401.430603,656.773621 
	C407.327515,656.850342 411.033478,660.650146 410.964539,667.201599 
	C410.759583,686.667236 410.801239,706.153625 409.787598,725.581848 
	C409.472778,731.615906 406.816040,737.865051 403.959351,743.353638 
	C399.165619,752.563843 391.007996,757.588928 380.467865,757.720581 
	C364.647766,757.918213 348.822144,757.893982 333.001343,757.728027 
	C324.294647,757.636719 319.323761,750.151367 323.126709,743.258789 
	C325.283447,739.349731 328.788910,737.992371 333.147705,738.017029 
	C347.304260,738.097107 361.461761,738.089478 375.618530,738.029480 
	C383.560059,737.995850 389.234741,732.520142 389.919617,724.007263 
	C378.612335,724.007263 367.336365,724.007263 356.060364,724.007263 
	C332.625244,724.007263 320.561371,712.760071 319.060577,689.208984 
	C318.595184,681.905945 318.567810,674.565063 318.604767,667.242920 
	C318.637329,660.797729 322.920563,656.219543 328.451416,656.250732 
	C334.079620,656.282471 338.029083,660.753601 338.175079,667.286133 
	C338.331177,674.272156 338.037140,681.300476 338.711212,688.235413 
	C339.842163,699.871094 345.110138,704.332397 357.103363,704.364990 
z"/>
<path fill="#2C65F6" opacity="1.000000" stroke="none" 
	d="
M709.992554,724.007446 
	C701.996826,724.007324 694.486084,723.716309 687.005066,724.064697 
	C668.621643,724.920898 657.266602,710.528809 656.230774,695.241394 
	C655.848083,689.592468 656.564087,683.464417 658.449585,678.147339 
	C662.940308,665.484070 672.393066,658.364197 686.019409,658.164612 
	C706.673950,657.862061 727.336060,657.996521 747.994324,658.087463 
	C754.613953,658.116577 758.378479,662.070068 758.415100,668.822876 
	C758.498230,684.150085 758.499268,699.478455 758.411316,714.805542 
	C758.372681,721.538391 754.532898,725.714539 748.729065,725.755066 
	C742.605042,725.797791 738.960022,721.664978 738.929077,714.483459 
	C738.884521,704.154114 738.788269,693.822144 738.978577,683.496155 
	C739.057678,679.205627 737.474915,677.543335 733.156677,677.581970 
	C717.497009,677.722351 701.834717,677.720642 686.175049,677.582336 
	C681.905518,677.544617 679.091125,679.477051 677.464478,683.040466 
	C674.995239,688.449829 675.022766,694.032288 677.598022,699.449890 
	C679.252747,702.930725 682.003723,704.477356 686.014038,704.421082 
	C697.507507,704.259583 709.005920,704.272156 720.500000,704.411499 
	C726.189514,704.480469 730.329529,707.877014 731.006226,712.493042 
	C731.710266,717.295532 729.346802,721.597107 724.865051,723.281494 
	C723.507385,723.791748 721.956543,723.926575 720.486267,723.970398 
	C717.157104,724.069641 713.823059,724.005249 709.992554,724.007446 
z"/>
<path fill="#2D65F6" opacity="1.000000" stroke="none" 
	d="
M490.997681,724.008789 
	C480.168182,723.994568 469.838226,723.975342 459.508240,723.967224 
	C437.028870,723.949524 427.835388,705.138977 428.343231,689.880920 
	C428.892365,673.381226 438.577484,661.155579 452.535614,658.530212 
	C454.643494,658.133789 456.837158,658.071289 458.991730,658.065247 
	C472.987335,658.026062 487.018280,658.676331 500.970825,657.900146 
	C523.021973,656.673462 534.550537,676.194336 533.278259,693.117920 
	C531.818848,712.531494 519.835754,723.823364 500.494507,724.003662 
	C497.495636,724.031616 494.496307,724.008362 490.997681,724.008789 
M506.743286,677.957581 
	C490.118103,677.872070 473.487732,677.564209 456.873474,677.949890 
	C454.485748,678.005310 451.412598,680.951477 449.990356,683.350525 
	C447.131744,688.172424 447.480743,693.570557 449.834412,698.679749 
	C451.381439,702.037964 453.691315,704.396667 457.808838,704.381470 
	C473.277344,704.324402 488.748413,704.478027 504.212372,704.204407 
	C506.346069,704.166687 509.080170,702.684082 510.447968,700.991089 
	C515.762390,694.413391 514.212585,683.692444 506.743286,677.957581 
z"/>
<path fill="#2D65F6" opacity="1.000000" stroke="none" 
	d="
M196.921326,689.125305 
	C197.321716,673.653320 208.502899,656.835938 229.158813,657.916809 
	C242.289337,658.603821 255.542343,658.832031 268.639374,657.878296 
	C294.412323,656.001587 306.058655,682.134705 300.568085,700.725220 
	C296.157043,715.660645 285.846832,723.791321 270.198792,723.962646 
	C257.200531,724.104980 244.199539,724.022583 231.199814,724.004272 
	C209.222153,723.973267 196.971039,711.662170 196.921326,689.125305 
M227.748505,677.636475 
	C224.991638,678.794312 221.486633,679.256409 219.630859,681.252136 
	C215.536530,685.655151 215.490463,695.700806 219.352859,700.379822 
	C220.938934,702.301270 223.902054,704.131775 226.279190,704.184570 
	C241.574631,704.524353 256.881439,704.323303 272.184113,704.386963 
	C275.985565,704.402771 279.039642,702.809143 279.911438,699.329529 
	C280.963318,695.131104 281.851593,690.504578 281.153351,686.341309 
	C279.963623,679.247131 277.251251,677.647827 270.107635,677.640564 
	C256.301697,677.626404 242.495743,677.636108 227.748505,677.636475 
z"/>
<path fill="#2C64F6" opacity="1.000000" stroke="none" 
	d="
M118.808746,682.876160 
	C115.375916,676.095825 111.188477,673.381470 106.386223,674.479919 
	C100.890854,675.736938 97.274284,680.815857 97.202553,687.744080 
	C97.109390,696.741150 97.233360,705.740356 97.160339,714.737854 
	C97.103210,721.776794 93.668915,725.672607 87.660202,725.760742 
	C81.599976,725.849670 77.869621,721.654785 77.832664,714.565857 
	C77.786613,705.734680 78.020386,696.897583 77.774284,688.072998 
	C77.411110,675.050232 83.120697,665.631775 94.374229,659.586731 
	C105.631775,653.539490 116.502884,655.098999 126.846550,662.120361 
	C127.533585,662.586609 128.227280,663.043335 128.926498,663.491028 
	C129.062668,663.578308 129.239014,663.602844 129.396851,663.656250 
	C147.442123,651.065308 167.777725,654.711548 177.136124,672.548401 
	C179.074661,676.243225 180.215332,680.714539 180.417343,684.891174 
	C180.899826,694.865967 180.786636,704.882629 180.558685,714.874268 
	C180.398270,721.906433 176.197540,726.009155 170.186966,725.756348 
	C164.769455,725.528503 161.011673,721.706482 160.950699,716.005432 
	C160.847351,706.341980 161.049698,696.674377 160.880630,687.012756 
	C160.718872,677.768494 152.870071,671.674377 145.773514,675.261597 
	C141.070755,677.638855 138.917175,681.812866 138.941193,687.129272 
	C138.983337,696.460388 139.086655,705.794434 138.907928,715.122314 
	C138.752640,723.227051 131.967514,727.890564 124.969330,724.864807 
	C120.600586,722.975891 119.099060,719.345947 119.100624,714.768555 
	C119.104202,704.273987 118.980759,693.779358 118.808746,682.876160 
z"/>
<path fill="#2E66F6" opacity="1.000000" stroke="none" 
	d="
M549.989624,706.981262 
	C550.586792,697.724121 550.092529,688.713928 552.023743,680.257751 
	C555.350342,665.691162 566.287170,658.051636 581.137451,658.045166 
	C598.455566,658.037598 615.773987,657.994507 633.091736,658.070679 
	C639.162903,658.097351 643.508423,662.340088 643.480286,667.849609 
	C643.451965,673.396851 639.609314,677.207275 633.580811,677.619812 
	C632.420349,677.699280 631.250305,677.640503 630.084656,677.640564 
	C614.265198,677.641235 598.445740,677.638123 582.626282,677.642151 
	C574.215088,677.644287 570.176392,681.350342 569.900513,689.936157 
	C569.633240,698.253723 569.939514,706.588562 569.740356,714.909790 
	C569.550720,722.832031 563.747131,727.372986 556.903992,725.198975 
	C552.668030,723.853271 550.165039,721.042419 550.032349,716.468933 
	C549.945496,713.473938 549.998962,710.474792 549.989624,706.981262 
z"/>
<path fill="#FEFEFF" opacity="1.000000" stroke="none" 
	d="
M507.153168,678.074097 
	C514.212585,683.692444 515.762390,694.413391 510.447968,700.991089 
	C509.080170,702.684082 506.346069,704.166687 504.212372,704.204407 
	C488.748413,704.478027 473.277344,704.324402 457.808838,704.381470 
	C453.691315,704.396667 451.381439,702.037964 449.834412,698.679749 
	C447.480743,693.570557 447.131744,688.172424 449.990356,683.350525 
	C451.412598,680.951477 454.485748,678.005310 456.873474,677.949890 
	C473.487732,677.564209 490.118103,677.872070 507.153168,678.074097 
z"/>
<path fill="#FEFEFF" opacity="1.000000" stroke="none" 
	d="
M228.219147,677.636230 
	C242.495743,677.636108 256.301697,677.626404 270.107635,677.640564 
	C277.251251,677.647827 279.963623,679.247131 281.153351,686.341309 
	C281.851593,690.504578 280.963318,695.131104 279.911438,699.329529 
	C279.039642,702.809143 275.985565,704.402771 272.184113,704.386963 
	C256.881439,704.323303 241.574631,704.524353 226.279190,704.184570 
	C223.902054,704.131775 220.938934,702.301270 219.352859,700.379822 
	C215.490463,695.700806 215.536530,685.655151 219.630859,681.252136 
	C221.486633,679.256409 224.991638,678.794312 228.219147,677.636230 
z"/>
</svg>